<svg width="1366" height="842" viewBox="0 0 1366 842" fill="none" xmlns="http://www.w3.org/2000/svg">
<rect width="1366" height="842" fill="white"/>
<g clip-path="url(#clip0_1_946)">
<path d="M11 245H78C77.3952 242.941 76.6078 240.969 75.5664 239.062C74.5251 237.154 73.0083 235.401 70.9645 234.365C69.4186 233.58 67.6464 233.239 65.8839 233.089C59.652 232.558 53.2148 234.392 48.4285 238.062C47.4389 238.821 46.4347 239.691 45.1573 239.87C43.0099 240.171 41.2296 238.452 39.2068 237.732C37.4637 237.11 35.4069 237.271 33.8044 238.151C32.5884 238.82 31.5503 239.899 30.1371 240.035C28.3018 240.213 26.8271 238.741 25.1082 238.133C23.3053 237.494 21.1127 237.892 19.7172 239.112C18.8812 239.843 18.3428 240.811 17.5553 241.586C16.0596 243.059 13.204 245 11.0016 245H11Z" fill="#DFE2DF"/>
</g>
<g clip-path="url(#clip1_1_946)">
<path d="M1051 245H1118C1117.4 242.941 1116.61 240.969 1115.57 239.062C1114.53 237.154 1113.01 235.401 1110.96 234.365C1109.42 233.58 1107.65 233.239 1105.88 233.089C1099.65 232.558 1093.21 234.392 1088.43 238.062C1087.44 238.821 1086.43 239.691 1085.16 239.87C1083.01 240.171 1081.23 238.452 1079.21 237.732C1077.46 237.11 1075.41 237.271 1073.8 238.151C1072.59 238.82 1071.55 239.899 1070.14 240.035C1068.3 240.213 1066.83 238.741 1065.11 238.133C1063.31 237.494 1061.11 237.892 1059.72 239.112C1058.88 239.843 1058.34 240.811 1057.56 241.586C1056.06 243.059 1053.2 245 1051 245H1051Z" fill="#DFE2DF"/>
</g>
<g clip-path="url(#clip2_1_946)">
<path d="M306 300H393C392.215 297.427 391.192 294.962 389.84 292.577C388.488 290.193 386.518 288.001 383.864 286.706C381.857 285.725 379.556 285.299 377.267 285.112C369.175 284.447 360.816 286.739 354.601 291.327C353.316 292.277 352.012 293.364 350.354 293.588C347.565 293.963 345.253 291.815 342.627 290.914C340.363 290.138 337.692 290.338 335.612 291.439C334.033 292.275 332.685 293.623 330.85 293.794C328.467 294.016 326.552 292.176 324.32 291.416C321.979 290.618 319.131 291.115 317.319 292.64C316.234 293.554 315.535 294.763 314.512 295.732C312.57 297.574 308.862 300 306.002 300H306Z" fill="#DFE2DF"/>
</g>
<g clip-path="url(#clip3_1_946)">
<path d="M1266 300H1353C1352.21 297.427 1351.19 294.962 1349.84 292.577C1348.49 290.193 1346.52 288.001 1343.86 286.706C1341.86 285.725 1339.56 285.299 1337.27 285.112C1329.17 284.447 1320.82 286.739 1314.6 291.327C1313.32 292.277 1312.01 293.364 1310.35 293.588C1307.57 293.963 1305.25 291.815 1302.63 290.914C1300.36 290.138 1297.69 290.338 1295.61 291.439C1294.03 292.275 1292.68 293.623 1290.85 293.794C1288.47 294.016 1286.55 292.176 1284.32 291.416C1281.98 290.618 1279.13 291.115 1277.32 292.64C1276.23 293.554 1275.53 294.763 1274.51 295.732C1272.57 297.574 1268.86 300 1266 300H1266Z" fill="#DFE2DF"/>
</g>
<defs>
<clipPath id="clip0_1_946">
<rect width="67" height="12" fill="white" transform="translate(11 233)"/>
</clipPath>
<clipPath id="clip1_1_946">
<rect width="67" height="12" fill="white" transform="translate(1051 233)"/>
</clipPath>
<clipPath id="clip2_1_946">
<rect width="87" height="15" fill="white" transform="translate(306 285)"/>
</clipPath>
<clipPath id="clip3_1_946">
<rect width="87" height="15" fill="white" transform="translate(1266 285)"/>
</clipPath>
</defs>
</svg>
